HIERARCHY
ROOT RootJoint
{
    OFFSET   0.000000   0.000000   0.000000
    CHANNELS 6 Xposition Yposition Zposition Xrotation Yrotation Zrotation
    JOINT pelvis_lowerback
    {
        OFFSET   0.000000   0.093605   0.000000
        CHANNELS 3 Xrotation Yrotation Zrotation
        JOINT lowerback_torso
        {
            OFFSET   0.000000   0.100000   0.000000
            CHANNELS 3 Xrotation Yrotation Zrotation
            JOINT torso_head
            {
                OFFSET   0.000000   0.282350   0.000000
                CHANNELS 3 Xrotation Yrotation Zrotation
                End Site
                {
                    OFFSET   0.000000   0.192650   0.000000
                }
            }
            JOINT rTorso_Clavicle
            {
                OFFSET  -0.001000   0.157500   0.000000
                CHANNELS 3 Xrotation Yrotation Zrotation
                JOINT rShoulder
                {
                    OFFSET  -0.117647   0.000000   0.000000
                    CHANNELS 3 Xrotation Yrotation Zrotation
                    JOINT rElbow
                    {
                        OFFSET  -0.245000   0.000000   0.000000
                        CHANNELS 3 Xrotation Yrotation Zrotation
                        JOINT rWrist
                        {
                            OFFSET  -0.240000   0.000000   0.000000
                            CHANNELS 3 Xrotation Yrotation Zrotation
                            End Site
                            {
                                OFFSET  -0.116353  -0.002500   0.000000
                            }
                        }
                    }
                }
            }
            JOINT lTorso_Clavicle
            {
                OFFSET   0.001000   0.157500   0.000000
                CHANNELS 3 Xrotation Yrotation Zrotation
                JOINT lShoulder
                {
                    OFFSET   0.117647   0.000000   0.000000
                    CHANNELS 3 Xrotation Yrotation Zrotation
                    JOINT lElbow
                    {
                        OFFSET   0.245000   0.000000   0.000000
                        CHANNELS 3 Xrotation Yrotation Zrotation
                        JOINT lWrist
                        {
                            OFFSET   0.240000   0.000000   0.000000
                            CHANNELS 3 Xrotation Yrotation Zrotation
                            End Site
                            {
                                OFFSET   0.116353  -0.002500   0.000000
                            }
                        }
                    }
                }
            }
        }
    }
    JOINT rHip
    {
        OFFSET  -0.100000  -0.051395   0.000000
        CHANNELS 3 Xrotation Yrotation Zrotation
        JOINT rKnee
        {
            OFFSET   0.000000  -0.410000   0.000000
            CHANNELS 3 Xrotation Yrotation Zrotation
            JOINT rAnkle
            {
                OFFSET   0.000000  -0.390000   0.000000
                CHANNELS 3 Xrotation Yrotation Zrotation
                JOINT rToeJoint
                {
                    OFFSET   0.000000  -0.050000   0.130000
                    CHANNELS 3 Xrotation Yrotation Zrotation
                    End Site
                    {
                        OFFSET  -0.010000   0.002000   0.060000
                    }
                }
            }
        }
    }
    JOINT lHip
    {
        OFFSET   0.100000  -0.051395   0.000000
        CHANNELS 3 Xrotation Yrotation Zrotation
        JOINT lKnee
        {
            OFFSET   0.000000  -0.410000   0.000000
            CHANNELS 3 Xrotation Yrotation Zrotation
            JOINT lAnkle
            {
                OFFSET   0.000000  -0.390000   0.000000
                CHANNELS 3 Xrotation Yrotation Zrotation
                JOINT lToeJoint
                {
                    OFFSET   0.000000  -0.050000   0.130000
                    CHANNELS 3 Xrotation Yrotation Zrotation
                    End Site
                    {
                        OFFSET   0.010000   0.002000   0.060000
                    }
                }
            }
        }
    }
}
MOTION
Frames: 15
Frame Time:   0.008333
 -2.376719   0.925631   3.975860   0.000000   0.000000   0.000000   0.000000   0.000000   0.000000   0.000000   0.000000   0.000000   0.000000   0.000000   0.000000   0.000000   0.000000   0.000000   0.000000   0.000000   0.000000   0.000000   0.000000   0.000000   0.000000   0.000000   0.000000   0.000000   0.000000   0.000000   0.000000   0.000000   0.000000   0.000000   0.000000   0.000000   0.000000   0.000000   0.000000   0.000000   0.000000   0.000000   0.000000   0.000000   0.000000   0.000000   0.000000   0.000000   0.000000   0.000000   0.000000   0.000000   0.000000   0.000000   0.000000   0.000000   0.000000   0.000000   0.000000   0.000000   0.000000   0.000000   0.000000
 -2.377166   0.926002   3.973315   1.680185   0.647792  -0.259056  -2.068269  -0.358353  -0.007978   0.964000  -0.611875   0.261942  -1.043424  -0.101502   0.195743   0.678910  -0.590373   0.390001   1.125263  -0.060705   1.889752   0.070962   3.433025  -0.072777   0.214104  -1.247146  -2.701208   0.438508   0.601221  -0.141715   1.807965   1.028686  -1.915657   0.068216  -3.701652   0.092607   0.173457   0.861312   2.184635  -2.974166  -0.700486   0.303980   3.367549  -0.002365  -0.001084  -3.749615  -0.580177   0.357625   0.403660  -0.001572  -0.002167  -3.018214  -0.237710   0.306817   1.959380  -0.001198   0.007267  -0.682662   0.044229  -0.265125   1.403769   0.002340   0.005697
 -2.377687   0.926564   3.970250   3.244897   1.554640  -0.621943  -3.865130  -0.814365  -0.008362   1.991933  -1.308313   0.612092  -2.027333  -0.218556   0.386115   1.337842  -1.134357   1.476683   2.174814  -0.028759   4.207376   0.166557   6.732674  -0.131526   0.501578  -1.650894  -4.777265   0.880830   1.110037  -0.854704   3.630098   1.906553  -4.337053   0.169869  -7.491182   0.177133   0.440651   0.920111   3.860917  -5.817062  -1.394765   0.623005   6.996364  -0.003776   0.007635  -7.314104  -1.157353   0.652669   0.620520  -0.002041  -0.002308  -6.133237  -0.481550   0.647888   3.874593  -0.001657   0.017808  -1.308129   0.091976  -0.511919   2.734584   0.004263   0.013250
 -2.378195   0.926941   3.966942   4.736070   2.579252  -1.055935  -5.459529  -1.290503   0.014846   3.028198  -2.006799   1.013767  -2.931486  -0.331725   0.556801   1.964911  -1.576473   2.995899   3.144243   0.083011   6.741840   0.261443   9.827850  -0.174595   0.787210  -1.805854  -6.052374   1.298411   1.476882  -1.926924   5.455535   2.605213  -7.083486   0.281754 -11.235575   0.248234   0.720924   0.680602   4.906051  -8.488730  -2.053001   0.906611  10.649686  -0.002687   0.020641 -10.637946  -1.710827   0.891236   0.814923  -0.002234  -0.002000  -9.292000  -0.731373   0.962555   5.642118  -0.001154   0.027665  -1.892332   0.141230  -0.741515   3.951690   0.006064   0.020052
 -2.378720   0.926855   3.963550   6.181456   3.648941  -1.547523  -6.893552  -1.758017   0.062749   4.041546  -2.676687   1.442360  -3.765901  -0.439133   0.715422   2.561598  -1.915264   4.774165   4.040251   0.273795   9.368188   0.343808  12.728482  -0.204798   1.063180  -1.845365  -6.693165   1.685531   1.728012  -3.255470   7.188200   3.097981  -9.904180   0.381318 -14.757898   0.299203   1.009233   0.235954   5.385530 -11.000833  -2.676998   1.149685  14.300040   0.000763   0.034274 -13.739468  -2.239124   1.082690   0.988516  -0.002232  -0.001535 -12.488178  -0.989363   1.236303   7.267697  -0.000091   0.035531  -2.439247   0.190214  -0.955319   5.059606   0.007657   0.025250
 -2.379293   0.926101   3.960199   7.597930   4.725907  -2.090476  -8.200388  -2.204159   0.133189   5.013533  -3.303447   1.889688  -4.537272  -0.540991   0.862911   3.126105  -2.166134   6.689169   4.866509   0.530909  12.000394   0.408725  15.445712  -0.224559   1.329106  -1.811238  -6.882763   2.038151   1.898042  -4.721250   8.825908   3.422309 -12.708606   0.461785 -18.062005   0.333053   1.292636  -0.305885   5.467046 -13.349622  -3.268596   1.358456  17.909828   0.006008   0.046620 -16.633642  -2.741434   1.234490   1.144753  -0.002103  -0.001050 -15.717942  -1.255914   1.467643   8.765361   0.001164   0.041213  -2.951103   0.238097  -1.154422   6.068940   0.008940   0.028785
 -2.379928   0.924546   3.957025   8.981951   5.773890  -2.675295  -9.402035  -2.615478   0.222466   5.937271  -3.874641   2.348362  -5.249859  -0.637445   1.000349   3.656970  -2.348624   8.657636   5.626170   0.837228  14.582487   0.455168  17.989323  -0.235759   1.584321  -1.730253  -6.766243   2.357616   2.021943  -6.244537  10.368884   3.617008 -15.441566   0.521273 -21.155199   0.352417   1.563641  -0.884756   5.282083 -15.482999  -3.826655   1.541866  21.323594   0.012012   0.055672 -19.332922  -3.217437   1.352827   1.288464  -0.001904  -0.000612 -18.939909  -1.524730   1.657900  10.130688   0.002352   0.044634  -3.430407   0.284649  -1.339686   6.988782   0.009857   0.030768
 -2.379768   0.921542   3.953688   9.747402   6.675743  -3.003315 -10.021337  -2.949066   0.307043   6.980657  -4.168082   2.778543  -5.996421  -0.612346   0.668103   3.821416  -2.120765  10.115702   5.841126   1.068262  16.614434   0.468398  20.514550  -0.231979   1.629151  -2.183731  -5.438787   2.539034   1.819855  -7.596269  12.606179   3.188785 -17.697899   0.545877 -23.938362   0.381681   1.598252  -1.107385   4.479640 -16.669885  -4.185357   1.371578  24.223938   0.020912   0.057348 -21.929955  -3.524361   1.751299   1.799064  -0.002718   0.000986 -22.290621  -1.221016   1.519394  13.724844   0.012505   0.076856  -4.392211   0.469520  -1.374806   7.397123   0.009340   0.029864
 -2.379317   0.917261   3.950495  10.417742   7.317632  -3.250677 -10.619683  -3.133531   0.430483   7.970685  -4.311660   3.152678  -6.678958  -0.575555   0.343437   3.889779  -1.704580  11.210970   5.980450   1.421652  18.304317   0.460595  22.926724  -0.225234   1.689252  -2.461949  -4.348582   2.670750   1.509304  -8.716792  14.649204   2.628443 -19.671190   0.550097 -26.577369   0.394700   1.666019  -1.447788   3.740063 -17.595934  -4.475314   1.094377  26.934085   0.027948   0.051536 -24.351270  -3.828336   2.114505   2.276262  -0.002691   0.001266 -25.661004  -0.869297   1.333618  17.606574   0.025549   0.096566  -5.269916   0.648428  -1.401284   7.821899   0.009101   0.028422
 -2.378780   0.911809   3.947497  11.076083   7.790199  -3.471984 -11.228009  -3.227915   0.572966   8.845544  -4.356551   3.492472  -7.318811  -0.536715   0.049119   3.891479  -1.198777  12.056144   6.064893   1.833152  19.744880   0.440169  25.215734  -0.215667   1.779445  -2.540668  -3.569902   2.765820   1.175207  -9.656482  16.517510   2.021451 -21.410177   0.539915 -29.059404   0.394149   1.741055  -1.873959   3.175980 -18.355076  -4.732364   0.779477  29.482939   0.032655   0.042497 -26.608314  -4.129131   2.443762   2.717550  -0.002249   0.000873 -29.067941  -0.514557   1.165957  21.520592   0.038083   0.105209  -6.084614   0.814286  -1.422271   8.231784   0.008868   0.026390
 -2.378250   0.905254   3.944711  11.737072   8.157859  -3.685816 -11.844126  -3.262735   0.720026   9.608604  -4.334536   3.803592  -7.922950  -0.497444  -0.218993   3.847511  -0.658698  12.727079   6.109005   2.264055  20.998270   0.412629  27.375485  -0.204229   1.884341  -2.486361  -3.029041   2.838273   0.851316 -10.453986  18.233495   1.407216 -22.954742   0.520066 -31.382352   0.383709   1.814196  -2.319971   2.760724 -18.970680  -4.963955   0.452489  31.883462   0.035416   0.032872 -28.712776  -4.423515   2.741265   3.124244  -0.001621   0.000256 -32.520055  -0.160635   1.032491  25.426069   0.048958   0.107058  -6.844227   0.968318  -1.438765   8.613038   0.008556   0.024069
 -2.377774   0.897645   3.942136  12.398304   8.456400  -3.898855 -12.459795  -3.253391   0.863813  10.276194  -4.264243   4.087772  -8.493246  -0.458199  -0.465338   3.773487  -0.114605  13.273798   6.124018   2.693301  22.106705   0.381639  29.405715  -0.191847   1.994402  -2.353028  -2.655962   2.898468   0.553306 -11.139334  19.815913   0.806374 -24.337458   0.494085 -33.550234   0.366538   1.881931  -2.747179   2.454575 -19.454469  -5.173311   0.125375  34.147341   0.036704   0.023871 -30.675231  -4.709239   3.009517   3.498781  -0.000936  -0.000371 -36.011797   0.190265   0.936900  29.313193   0.057911   0.104863  -7.553265   1.111808  -1.451475   8.964265   0.008173   0.021694
 -2.377337   0.889033   3.939862  12.996673   8.674738  -4.092790 -13.036606  -3.194995   0.997479  10.884332  -4.147320   4.341503  -9.027939  -0.418836  -0.693612   3.677930   0.422584  13.730554   6.116989   3.112770  23.099182   0.349568  31.310321  -0.179032   2.105163  -2.174020  -2.400273   2.954844   0.289354 -11.738065  21.281002   0.231015 -25.586124   0.464481 -35.568814   0.345131   1.942780  -3.130832   2.223022 -19.767964  -5.358684  -0.202506  36.294314   0.036713   0.015369 -32.505098  -4.984804   3.251563   3.843698  -0.000253  -0.001022 -39.425439   0.519569   0.879568  33.148176   0.064273   0.098474  -8.216850   1.246098  -1.460753   9.280765   0.007669   0.019220
 -2.377571   0.879227   3.937429  12.978580   8.542144  -4.270691 -12.580978  -3.114560   1.097646  11.305617  -3.949662   4.651505  -9.702934  -0.362092  -1.041917   3.629141   1.038068  14.004833   5.432603   3.863289  24.004969   0.326684  33.864806  -0.167126   2.081209  -2.603381  -1.924664   3.141708   0.191089 -11.972396  23.085045  -0.131103 -26.608617   0.429816 -37.277223   0.330339   2.000528  -4.059262   1.913670 -19.248178  -5.459008  -0.200118  37.937450   0.031286   0.007248 -34.518675  -4.889097   3.221739   4.154617   0.000580  -0.001118 -42.380023   1.289241   1.181564  37.098589   0.073777   0.098705  -8.215624   1.354339  -1.071870   9.265912   0.006087   0.015275
 -2.377990   0.868345   3.935005  12.888652   8.197167  -4.411132 -12.058018  -2.922809   1.151965  11.765428  -3.616782   4.921720 -10.314689  -0.317626  -1.393136   3.488987   1.725595  14.170070   4.717694   4.664368  24.790361   0.301114  36.324056  -0.157885   2.067585  -2.650272  -1.625304   3.385044   0.197088 -11.994936  24.814126  -0.366025 -27.454781   0.393323 -38.821555   0.311701   2.060219  -4.775438   1.647408 -18.594981  -5.569500  -0.116465  39.446715   0.024335  -0.000835 -36.402339  -4.793155   3.202212   4.418363   0.000985  -0.001670 -45.339859   2.005834   1.541982  41.002678   0.081439   0.089249  -8.204727   1.459908  -0.707265   9.311982   0.004904   0.012477
